<svg width="52" height="68" viewBox="0 0 52 68" fill="none" xmlns="http://www.w3.org/2000/svg">
<path fill-rule="evenodd" clip-rule="evenodd" d="M0.778976 19.8207C0.390573 22.6949 0.193359 25.826 0.193359 29.2141V67.3194H8.95336V47.3674H43.2822V67.3194H52.0004V29.2141C52.0004 25.4077 51.7733 21.9659 51.3251 18.8766C50.8471 15.7933 49.7656 12.8235 48.0924 9.97916C46.4133 7.13485 43.7782 4.81041 40.181 3.0118C36.5838 1.2132 31.8512 0.316895 25.9833 0.316895C19.9601 0.316895 15.1558 1.32075 11.5586 3.3285C7.93155 5.36612 5.32625 7.89972 3.73679 10.9233C2.12939 13.9767 1.1375 16.9465 0.778976 19.8207ZM43.2882 40.5017V29.3455C43.2882 25.3898 43.0013 21.9778 42.4337 19.0977C41.866 16.2534 40.3662 13.7198 37.9402 11.5029C35.5142 9.286 31.7675 8.17458 26.7063 8.17458C21.5854 8.17458 17.7313 9.05895 15.1559 10.8277C12.5805 12.5964 10.9013 14.9447 10.1245 17.8847C9.34772 20.8485 8.95336 24.6727 8.95336 29.3455V40.5017H43.2882Z" fill="#283433"/>
</svg>
