<svg width="64" height="69" viewBox="0 0 64 69" fill="none" xmlns="http://www.w3.org/2000/svg">
<path d="M32.2112 0.316895C41.4373 0.316895 48.9903 3.448 54.8581 9.71025C60.732 15.9725 63.6659 24.2246 63.6659 34.4724C63.6659 44.6904 60.714 52.9126 54.8103 59.145C48.9066 65.3475 41.3716 68.4487 32.2053 68.4487C22.7103 68.4487 15.0677 65.228 9.28949 58.7865C3.51125 52.339 0.619141 44.4753 0.619141 35.1895C0.619141 24.374 3.54112 15.865 9.37912 9.66844C15.2589 3.43607 22.8657 0.316895 32.2112 0.316895ZM32.1216 60.9854C38.8021 60.9854 44.2099 58.649 48.3449 53.9762C52.5098 49.3035 54.6072 42.8022 54.637 34.4724C54.637 25.9037 52.5098 19.3128 48.2553 14.6997C44.0306 10.0867 38.7125 7.7802 32.3009 7.7802C25.71 7.7802 20.2903 10.0449 16.0357 14.5683C11.7812 19.0917 9.65399 26.0292 9.65399 35.3747C9.65399 43.0113 11.7334 49.2019 15.8983 53.9344C20.0632 58.6311 25.471 60.9854 32.1216 60.9854Z" fill="white"/>
</svg>
