<svg width="59" height="67" viewBox="0 0 59 67" fill="none" xmlns="http://www.w3.org/2000/svg">
<path d="M58.388 66.3194H47.4231C40.862 55.952 36.7868 49.5882 35.1973 47.2219C33.6079 44.8556 31.9288 42.83 30.166 41.1568C28.4272 39.4479 26.7779 38.3723 25.2243 37.9181C23.6946 37.47 21.657 37.2429 19.1115 37.2429H9.04286V66.3194H0.324707V0.440247H29.4908C33.4764 0.440247 36.8167 0.697189 39.5116 1.2051C42.2065 1.71301 44.5728 2.79457 46.6104 4.44379C48.648 6.06313 50.2076 8.1127 51.2832 10.5985C52.3886 13.0843 52.9444 15.7075 52.9444 18.4621C52.9444 23.4337 51.3728 27.4373 48.2238 30.4608C45.0807 33.4844 40.4975 35.4025 34.4743 36.2152V36.3944C38.8782 38.3424 43.0132 42.34 46.8793 48.3931L58.388 66.3194ZM9.04286 29.4271H27.734C31.5105 29.4271 34.4862 29.1104 36.6792 28.483C38.8961 27.8257 40.6648 26.5648 41.9794 24.7065C43.3 22.8481 43.9573 20.7687 43.9573 18.4621C43.9573 15.4685 42.8638 12.9229 40.6768 10.8196C38.4898 8.72221 34.8806 7.6765 29.8493 7.6765H9.04286V29.4271Z" fill="#283433"/>
</svg>
