<svg width="53" height="68" viewBox="0 0 53 68" fill="none" xmlns="http://www.w3.org/2000/svg">
<path d="M52.6463 38.5515C52.6463 41.9396 52.4492 45.0648 52.0607 47.9449C51.7022 50.8191 50.7103 53.7889 49.0969 56.8423C47.5075 59.8659 44.9022 62.3995 41.2811 64.4371C37.6839 66.4448 32.8796 67.4487 26.8564 67.4487C20.9825 67.4487 16.25 66.5524 12.6588 64.7538C9.06155 62.9552 6.42638 60.6367 4.75326 57.7864C3.07416 54.9421 1.99859 51.9724 1.51458 48.889C1.06642 45.8057 0.839355 42.3579 0.839355 38.5515V0.446228H9.55751V38.4201C9.55751 42.3758 9.84432 45.7878 10.412 48.668C10.9797 51.5123 12.4795 54.0458 14.9055 56.2627C17.3315 58.4796 21.0781 59.591 26.1393 59.591C31.2603 59.591 35.1144 58.7067 37.6898 56.938C40.2653 55.1692 41.9443 52.8209 42.7211 49.881C43.498 46.9172 43.8923 43.0929 43.8923 38.4201V0.446228H52.6523V38.5515H52.6463Z" fill="#283433"/>
</svg>
