<svg width="637" height="357" viewBox="0 0 637 357" fill="none" xmlns="http://www.w3.org/2000/svg">
<path d="M549.473 354.554H532.52C522.376 338.525 516.075 328.686 513.617 325.028C511.16 321.369 508.564 318.237 505.838 315.65C503.15 313.008 500.6 311.345 498.198 310.643C495.833 309.95 492.682 309.599 488.747 309.599H473.179V354.554H459.7V252.698H504.794C510.957 252.698 516.121 253.095 520.288 253.88C524.454 254.666 528.113 256.338 531.263 258.888C534.414 261.391 536.825 264.56 538.488 268.404C540.197 272.247 541.056 276.303 541.056 280.562C541.056 288.248 538.627 294.438 533.758 299.113C528.898 303.788 521.812 306.753 512.499 308.01V308.287C519.308 311.299 525.702 317.48 531.679 326.838L549.473 354.554ZM473.179 297.515H502.078C507.917 297.515 512.518 297.025 515.909 296.055C519.336 295.039 522.071 293.089 524.103 290.216C526.145 287.343 527.161 284.128 527.161 280.562C527.161 275.933 525.471 271.997 522.089 268.745C518.708 265.503 513.128 263.886 505.349 263.886H473.179V297.515Z" fill="#283433"/>
<path d="M447.828 311.622C447.828 316.861 447.523 321.692 446.923 326.145C446.368 330.589 444.835 335.181 442.34 339.902C439.883 344.577 435.855 348.494 430.256 351.644C424.694 354.749 417.266 356.301 407.954 356.301C398.872 356.301 391.555 354.915 386.003 352.134C380.441 349.353 376.367 345.768 373.78 341.362C371.184 336.964 369.521 332.372 368.772 327.605C368.08 322.838 367.729 317.507 367.729 311.622V252.707H381.208V311.419C381.208 317.535 381.651 322.81 382.529 327.263C383.407 331.661 385.726 335.578 389.476 339.006C393.227 342.433 399.02 344.152 406.845 344.152C414.763 344.152 420.722 342.784 424.704 340.05C428.686 337.315 431.282 333.684 432.483 329.139C433.684 324.556 434.293 318.644 434.293 311.419V252.707H447.837V311.622H447.828Z" fill="#283433"/>
<path d="M356.402 264.791H322.708V354.554H309.164V264.791H275.748V252.707H356.411V264.791H356.402Z" fill="white"/>
<path d="M227.522 250.961C241.786 250.961 253.464 255.802 262.537 265.484C271.618 275.166 276.154 287.925 276.154 303.769C276.154 319.567 271.59 332.28 262.463 341.916C253.335 351.506 241.685 356.301 227.513 356.301C212.832 356.301 201.016 351.321 192.082 341.362C183.139 331.402 178.677 319.244 178.677 304.887C178.677 288.165 183.194 275.009 192.221 265.429C201.312 255.783 213.072 250.961 227.522 250.961ZM227.383 344.761C237.712 344.761 246.073 341.149 252.466 333.924C258.906 326.7 262.149 316.648 262.195 303.769C262.195 290.521 258.906 280.331 252.328 273.198C245.796 266.066 237.574 262.5 227.66 262.5C217.47 262.5 209.081 266.001 202.513 272.995C195.935 279.989 192.646 290.715 192.646 305.164C192.646 316.971 195.861 326.543 202.3 333.86C208.74 341.121 217.101 344.761 227.383 344.761Z" fill="white"/>
<path d="M122.469 250.961C136.734 250.961 148.411 255.802 157.484 265.484C166.565 275.166 171.102 287.925 171.102 303.769C171.102 319.567 166.538 332.28 157.41 341.916C148.282 351.506 136.632 356.301 122.46 356.301C107.78 356.301 95.9632 351.321 87.0294 341.362C78.0956 331.393 73.624 319.235 73.624 304.878C73.624 288.156 78.1417 275 87.168 265.419C96.2589 255.783 108.02 250.961 122.469 250.961ZM122.331 344.761C132.659 344.761 141.02 341.149 147.414 333.924C153.853 326.7 157.096 316.648 157.142 303.769C157.142 290.521 153.853 280.331 147.275 273.198C140.743 266.066 132.521 262.5 122.608 262.5C112.417 262.5 104.038 266.001 97.4599 272.995C90.8819 279.989 87.593 290.715 87.593 305.164C87.593 316.971 90.808 326.543 97.2474 333.86C103.687 341.121 112.048 344.761 122.331 344.761Z" fill="white"/>
<path d="M68.7175 264.791H13.4793V296.332H61.3451V308.416H13.4793V354.554H0V252.698H68.7175V264.791Z" fill="white"/>
<path fill-rule="evenodd" clip-rule="evenodd" d="M557.806 281.116C557.205 285.56 556.9 290.401 556.9 295.639V354.554H570.444V323.706H623.521V354.554H637V295.639C637 289.754 636.649 284.433 635.956 279.656C635.217 274.889 633.545 270.297 630.958 265.9C628.362 261.502 624.288 257.908 618.726 255.127C613.164 252.347 605.847 250.961 596.775 250.961C587.462 250.961 580.034 252.513 574.472 255.617C568.865 258.768 564.836 262.685 562.379 267.36C559.894 272.081 558.36 276.672 557.806 281.116ZM623.53 313.091V295.842C623.53 289.726 623.087 284.451 622.209 279.998C621.331 275.6 619.012 271.683 615.261 268.256C611.51 264.828 605.718 263.11 597.893 263.11C589.975 263.11 584.016 264.477 580.034 267.212C576.052 269.946 573.456 273.577 572.255 278.123C571.054 282.705 570.444 288.618 570.444 295.842V313.091H623.53Z" fill="#283433"/>
<path d="M0.166016 236.41C25.4062 124.437 149.454 -11.086 336.511 0.721064C421.23 6.07028 493.153 40.8078 551.967 101.451C588.884 139.542 614.014 184.534 628.001 235.698C568.208 98.6422 463.312 24.2983 313.294 24.52C163.59 24.714 59.0905 99.372 0.166016 236.41Z" fill="#B8C8BA"/>
</svg>
