<svg width="121" height="20" viewBox="0 0 121 20" fill="none" xmlns="http://www.w3.org/2000/svg">
<path d="M104.342 19.6685H101.123C99.1967 16.6252 98.0002 14.7571 97.5335 14.0624C97.0669 13.3678 96.5739 12.7732 96.0563 12.2821C95.5458 11.7804 95.0616 11.4647 94.6055 11.3313C94.1563 11.1998 93.5581 11.1331 92.8107 11.1331H89.8546V19.6685H87.2949V0.329769H95.8581C97.0283 0.329769 98.009 0.405195 98.8002 0.554291C99.5914 0.703388 100.286 1.02088 100.884 1.505C101.483 1.98036 101.941 2.58201 102.256 3.3117C102.581 4.0414 102.744 4.81144 102.744 5.62007C102.744 7.07946 102.283 8.25469 101.358 9.14226C100.435 10.0298 99.0897 10.5929 97.3212 10.8314V10.8841C98.6142 11.4559 99.8283 12.6294 100.963 14.4062L104.342 19.6685ZM89.8546 8.8388H95.3423C96.4511 8.8388 97.3248 8.74584 97.9686 8.56166C98.6195 8.36871 99.1388 7.9986 99.5248 7.45308C99.9125 6.90756 100.105 6.29714 100.105 5.62007C100.105 4.74128 99.7844 3.99404 99.1423 3.3766C98.5002 2.76092 97.4405 2.45396 95.9633 2.45396H89.8546V8.8388Z" fill="#B8C8BA"/>
<path d="M85.0406 11.5155C85.0406 12.5101 84.9827 13.4275 84.8687 14.2729C84.7634 15.1167 84.4722 15.9884 83.9985 16.8848C83.5318 17.7723 82.7669 18.5161 81.7038 19.1142C80.6476 19.7036 79.2371 19.9983 77.4687 19.9983C75.7441 19.9983 74.3546 19.7351 73.3003 19.2072C72.2441 18.6792 71.4704 17.9986 70.9792 17.1619C70.4862 16.327 70.1704 15.4552 70.0283 14.5501C69.8967 13.645 69.8301 12.6329 69.8301 11.5155V0.329769H72.3897V11.4769C72.3897 12.6381 72.4739 13.6397 72.6406 14.4852C72.8073 15.3201 73.2476 16.0639 73.9599 16.7146C74.6722 17.3654 75.7722 17.6916 77.2582 17.6916C78.7617 17.6916 79.8932 17.432 80.6494 16.9128C81.4055 16.3936 81.8985 15.7043 82.1266 14.8413C82.3546 13.9712 82.4704 12.8486 82.4704 11.4769V0.329769H85.0424V11.5155H85.0406Z" fill="#B8C8BA"/>
<path d="M67.6791 2.62586H61.2808V19.6685H58.7089V2.62586H52.3633V0.329769H67.6808V2.62586H67.6791Z" fill="#B8C8BA"/>
<path d="M43.2051 0C45.9139 0 48.1315 0.919137 49.8543 2.75741C51.5788 4.59569 52.4402 7.01807 52.4402 10.0263C52.4402 13.0258 51.5736 15.4394 49.8402 17.2689C48.1069 19.0896 45.8946 20 43.2034 20C40.4157 20 38.1718 19.0546 36.4753 17.1637C34.7771 15.2728 33.9297 12.9644 33.9297 10.2386C33.9297 7.06367 34.7876 4.56587 36.5016 2.74689C38.2279 0.913875 40.4613 0 43.2051 0ZM43.1788 17.8074C45.1402 17.8074 46.7279 17.1216 47.942 15.7499C49.1648 14.3782 49.7806 12.4697 49.7893 10.0246C49.7893 7.50921 49.1648 5.57446 47.9157 4.22031C46.6753 2.86616 45.1139 2.18909 43.2315 2.18909C41.2964 2.18909 39.7034 2.85389 38.456 4.18172C37.2069 5.50956 36.5823 7.54604 36.5823 10.2894C36.5823 12.5311 37.1928 14.3484 38.4157 15.7376C39.6385 17.118 41.2262 17.8074 43.1788 17.8074Z" fill="#B8C8BA"/>
<path d="M23.2559 0C25.9647 0 28.1822 0.919137 29.905 2.75741C31.6296 4.59569 32.491 7.01807 32.491 10.0263C32.491 13.0258 31.6243 15.4394 29.891 17.2689C28.1577 19.0896 25.9454 20 23.2542 20C20.4664 20 18.2226 19.0546 16.5261 17.1637C14.8296 15.271 13.9805 12.9626 13.9805 10.2368C13.9805 7.06192 14.8384 4.56411 16.5524 2.74513C18.2787 0.913875 20.5121 0 23.2559 0ZM23.2296 17.8074C25.191 17.8074 26.7787 17.1216 27.9928 15.7499C29.2156 14.3782 29.8314 12.4697 29.8401 10.0246C29.8401 7.50921 29.2156 5.57446 27.9664 4.22031C26.7261 2.86616 25.1647 2.18909 23.2822 2.18909C21.3471 2.18909 19.7559 2.85389 18.5068 4.18172C17.2577 5.50956 16.6331 7.54604 16.6331 10.2894C16.6331 12.5311 17.2436 14.3484 18.4664 15.7376C19.6892 17.118 21.277 17.8074 23.2296 17.8074Z" fill="#B8C8BA"/>
<path d="M13.0491 2.62586H2.55965V8.61428H11.6491V10.9086H2.55965V19.6685H0V0.329769H13.0491V2.62586Z" fill="#B8C8BA"/>
<path fill-rule="evenodd" clip-rule="evenodd" d="M105.925 5.72531C105.811 6.56902 105.753 7.48816 105.753 8.48272V19.6685H108.325V13.8116H118.404V19.6685H120.963V8.48272C120.963 7.36537 120.897 6.35503 120.765 5.44817C120.625 4.54306 120.307 3.67129 119.816 2.83634C119.323 2.0014 118.549 1.31907 117.493 0.791089C116.441 0.263112 115.051 0 113.327 0C111.558 0 110.148 0.294685 109.092 0.884055C108.027 1.4822 107.262 2.22593 106.795 3.11349C106.321 4.00982 106.03 4.8816 105.925 5.72531ZM118.406 11.7962V8.52131C118.406 7.36011 118.321 6.35853 118.155 5.51307C117.988 4.67813 117.548 3.9344 116.835 3.28363C116.123 2.63287 115.023 2.30661 113.537 2.30661C112.034 2.30661 110.902 2.56622 110.146 3.08542C109.39 3.60463 108.897 4.29398 108.669 5.15699C108.441 6.02701 108.325 7.14962 108.325 8.52131V11.7962H118.406Z" fill="#B8C8BA"/>
</svg>
