<svg width="81" height="104" viewBox="0 0 81 104" fill="none" xmlns="http://www.w3.org/2000/svg">
<path fill-rule="evenodd" clip-rule="evenodd" d="M0.908984 30.2734C0.306112 34.7347 0 39.5947 0 44.8536V104H13.5971V73.0309H66.8817V104H80.4138V44.8536C80.4138 38.9455 80.0614 33.6031 79.3658 28.808C78.6238 24.0221 76.945 19.4125 74.348 14.9976C71.7418 10.5827 67.6515 6.97474 62.068 4.18298C56.4845 1.39122 49.1387 0 40.0307 0C30.6816 0 23.2245 1.55817 17.641 4.67455C12.0111 7.83731 7.96718 11.7699 5.50004 16.463C3.00508 21.2025 1.46548 25.8122 0.908984 30.2734ZM66.8909 62.374V45.0577C66.8909 38.9177 66.4457 33.6217 65.5646 29.1512C64.6835 24.7363 62.3555 20.8037 58.5899 17.3627C54.8243 13.9217 49.0088 12.1966 41.153 12.1966C33.2043 12.1966 27.222 13.5692 23.2245 16.3146C19.227 19.06 16.6207 22.7051 15.415 27.2683C14.2092 31.8687 13.5971 37.8047 13.5971 45.0577V62.374H66.8909Z" fill="#283433"/>
</svg>
