<svg width="81" height="104" viewBox="0 0 81 104" fill="none" xmlns="http://www.w3.org/2000/svg">
<path d="M80.4138 59.1463C80.4138 64.4052 80.1077 69.256 79.5049 73.7266C78.9484 78.1878 77.4087 82.7975 74.9045 87.537C72.4374 92.2301 68.3935 96.1627 62.7728 99.3254C57.1893 102.442 49.7323 104 40.3831 104C31.2659 104 23.9201 102.609 18.3458 99.817C12.7623 97.0252 8.67206 93.4265 6.07508 89.0024C3.46882 84.5875 1.79934 79.9779 1.04807 75.192C0.352453 70.4061 0 65.0545 0 59.1463V0H13.5321V58.9423C13.5321 65.0823 13.9773 70.3783 14.8585 74.8488C15.7396 79.2637 18.0676 83.1963 21.8332 86.6373C25.5989 90.0783 31.4142 91.8034 39.2701 91.8034C47.2188 91.8034 53.2011 90.4308 57.1986 87.6854C61.1961 84.94 63.8024 81.2949 65.0081 76.7317C66.2138 72.1313 66.826 66.1953 66.826 58.9423V0H80.4231V59.1463H80.4138Z" fill="#283433"/>
</svg>
