<svg width="90" height="102" viewBox="0 0 90 102" fill="none" xmlns="http://www.w3.org/2000/svg">
<path d="M89.8988 102H72.9219C62.7636 85.9483 56.4539 76.0952 53.9929 72.4316C51.532 68.7679 48.9323 65.6316 46.203 63.0411C43.5108 60.3951 40.9573 58.7298 38.5518 58.0267C36.1834 57.3328 33.0286 56.9812 29.0874 56.9812H13.4982V102H0V0H45.1576C51.3285 0 56.5001 0.397822 60.6726 1.18422C64.8452 1.97061 68.5088 3.64518 71.6637 6.19865C74.8185 8.70586 77.2332 11.8792 78.8985 15.7279C80.6101 19.5766 81.4705 23.6381 81.4705 27.9031C81.4705 35.6005 79.0373 41.7992 74.1616 46.4806C69.2952 51.1619 62.1992 54.1317 52.8735 55.3899V55.6675C59.692 58.6835 66.0941 64.8729 72.08 74.2449L89.8988 102ZM13.4982 44.88H42.4376C48.2846 44.88 52.892 44.3897 56.2873 43.4182C59.7197 42.4006 62.4582 40.4484 64.4936 37.5712C66.5382 34.6939 67.5559 31.4743 67.5559 27.9031C67.5559 23.268 65.8628 19.3268 62.4767 16.0702C59.0906 12.8229 53.5026 11.2038 45.7126 11.2038H13.4982V44.88Z" fill="#283433"/>
</svg>
