<svg width="98" height="106" viewBox="0 0 98 106" fill="none" xmlns="http://www.w3.org/2000/svg">
<path d="M49.1069 0C63.4479 0 75.1882 4.86701 84.3093 14.6011C93.4396 24.3351 98.0001 37.1622 98.0001 53.0915C98.0001 68.9744 93.4117 81.755 84.235 91.4426C75.0582 101.084 63.3457 105.904 49.0976 105.904C34.3386 105.904 22.4589 100.898 13.4772 90.8853C4.4955 80.8633 0 68.64 0 54.2061C0 37.3944 4.54194 24.168 13.6165 14.5361C22.7562 4.84845 34.5801 0 49.1069 0ZM48.9676 94.3034C59.3518 94.3034 67.7576 90.6717 74.1851 83.4083C80.659 76.1449 83.9191 66.0393 83.9656 53.0915C83.9656 39.7722 80.659 29.5273 74.0458 22.3567C67.479 15.1862 59.2125 11.601 49.2462 11.601C39.0013 11.601 30.5768 15.1212 23.9636 22.1524C17.3504 29.1836 14.0438 39.9672 14.0438 54.494C14.0438 66.3644 17.2761 75.987 23.75 83.3433C30.2239 90.6438 38.6297 94.3034 48.9676 94.3034Z" fill="white"/>
</svg>
