<svg width="26" height="33" viewBox="0 0 26 33" fill="none" xmlns="http://www.w3.org/2000/svg">
<path fill-rule="evenodd" clip-rule="evenodd" d="M0.288428 9.60601C0.0971319 11.0216 0 12.5638 0 14.2324V33.0001H4.31448V23.1733H21.2221V33.0001H25.516V14.2324C25.516 12.3577 25.4042 10.6626 25.1834 9.14102C24.948 7.62242 24.4153 6.15974 23.5913 4.75886C22.7643 3.35798 21.4664 2.21315 19.6976 1.3273C17.9259 0.441447 15.5951 0 12.705 0C9.73847 0 7.37228 0.494421 5.60058 1.48328C3.81416 2.48685 2.531 3.73469 1.74815 5.22386C0.953539 6.72775 0.467952 8.19042 0.288428 9.60601ZM21.228 19.7918V14.2972C21.228 12.3489 21.0867 10.6684 20.8072 9.24991C20.5276 7.84903 19.7889 6.60119 18.594 5.50933C17.3991 4.41747 15.5539 3.87007 13.0611 3.87007C10.539 3.87007 8.64367 4.30564 7.37228 5.17677C6.1009 6.04791 5.27684 7.20451 4.89424 8.65248C4.51165 10.1122 4.32035 11.9928 4.32035 14.2972V19.7918H21.228Z" fill="white"/>
</svg>
