<svg width="29" height="32" viewBox="0 0 29 32" fill="none" xmlns="http://www.w3.org/2000/svg">
<path d="M28.2011 31.9972H22.8755C19.6888 26.9618 17.7095 23.871 16.9375 22.7217C16.1655 21.5724 15.3529 20.5885 14.4938 19.7759C13.6493 18.9459 12.8511 18.4234 12.0937 18.2058C11.3507 17.9881 10.361 17.8778 9.12467 17.8778H4.23437V32.0001H0V0H14.1659C16.1017 0 17.724 0.124796 19.0329 0.371487C20.3418 0.618178 21.4911 1.14348 22.4808 1.9416C23.4704 2.72811 24.2279 3.72359 24.7503 4.93092C25.2873 6.13825 25.5572 7.41234 25.5572 8.75027C25.5572 11.1649 24.7939 13.1094 23.2644 14.578C21.7378 16.0465 19.5118 16.9781 16.5863 17.3728V17.4599C18.7253 18.406 20.7336 20.3476 22.6114 23.2876L28.2011 31.9972ZM4.23437 14.0788H13.3155C15.1497 14.0788 16.595 13.925 17.6573 13.6202C18.734 13.301 19.593 12.6886 20.2315 11.786C20.8729 10.8834 21.1922 9.87344 21.1922 8.75317C21.1922 7.29914 20.6611 6.05989 19.5989 5.0441C18.5366 4.02541 16.7837 3.51753 14.34 3.51753H4.23437V14.0788Z" fill="white"/>
</svg>
