<svg width="31" height="34" viewBox="0 0 31 34" fill="none" xmlns="http://www.w3.org/2000/svg">
<path d="M15.5337 0C20.0701 0 23.7809 1.53955 26.669 4.61866C29.5572 7.69778 30.9998 11.7553 30.9998 16.7941C30.9998 21.8182 29.5483 25.861 26.6455 28.9255C23.7427 31.9752 20.0378 33.5001 15.5307 33.5001C10.8621 33.5001 7.1043 31.9164 4.26317 28.7492C1.4191 25.5819 0 21.7154 0 17.1496C0 11.8317 1.43673 7.64784 4.30724 4.5981C7.19831 1.53368 10.9385 0 15.5337 0ZM15.4896 29.8274C18.7744 29.8274 21.4333 28.6787 23.4665 26.3811C25.5143 24.0835 26.5456 20.8869 26.5603 16.7912C26.5603 12.5779 25.5143 9.33724 23.4224 7.06903C21.3452 4.80083 18.7303 3.66673 15.5777 3.66673C12.337 3.66673 9.67218 4.78027 7.58026 7.0044C5.48835 9.22853 4.44239 12.6396 4.44239 17.2348C4.44239 20.9897 5.46484 24.0335 7.51269 26.3605C9.56054 28.6728 12.2195 29.8274 15.4896 29.8274Z" fill="#B8C8BA"/>
</svg>
