<svg width="31" height="34" viewBox="0 0 31 34" fill="none" xmlns="http://www.w3.org/2000/svg">
<path d="M15.5339 0C20.0704 0 23.7842 1.53957 26.6694 4.61874C29.5576 7.6979 31.0002 11.7555 31.0002 16.7944C31.0002 21.8186 29.5488 25.8614 26.6459 28.9259C23.7431 31.9757 20.0381 33.5006 15.531 33.5006C10.8623 33.5006 7.1044 31.9169 4.26323 28.7496C1.42205 25.5794 0 21.7128 0 17.1469C0 11.8289 1.43675 7.64502 4.3073 4.59524C7.19842 1.5337 10.9387 0 15.5339 0ZM15.4898 29.8279C18.7747 29.8279 21.4337 28.6791 23.4669 26.3815C25.5147 24.0839 26.546 20.8872 26.5607 16.7914C26.5607 12.5781 25.5147 9.33739 23.4228 7.06915C21.3455 4.80091 18.7306 3.66678 15.578 3.66678C12.3372 3.66678 9.67233 4.78034 7.58038 7.00451C5.48843 9.22868 4.44246 12.6398 4.44246 17.2351C4.44246 20.99 5.46493 24.0339 7.51281 26.3609C9.56068 28.6732 12.2197 29.8279 15.4898 29.8279Z" fill="#B8C8BA"/>
</svg>
