<svg width="26" height="33" viewBox="0 0 26 33" fill="none" xmlns="http://www.w3.org/2000/svg">
<path d="M25.5189 18.7676C25.5189 20.4334 25.4218 21.9755 25.2305 23.3941C25.0539 24.8097 24.5654 26.2723 23.7708 27.7762C22.9879 29.2654 21.7048 30.5132 19.9184 31.5168C18.1467 32.5057 15.7805 33.0001 12.8139 33.0001C9.92093 33.0001 7.59005 32.5586 5.82129 31.6728C4.05254 30.7869 2.75173 29.645 1.92474 28.2412C1.09775 26.8403 0.568004 25.3777 0.332563 23.8591C0.111836 22.3405 0 20.6423 0 18.7676V0H4.29387V18.7029C4.29387 20.6512 4.43514 22.3316 4.71473 23.7502C4.99431 25.1511 5.73301 26.3989 6.92787 27.4908C8.12274 28.5826 9.96801 29.13 12.4607 29.13C14.9829 29.13 16.8782 28.6945 18.1496 27.8233C19.4181 26.9522 20.245 25.7956 20.6276 24.3476C21.0102 22.8879 21.2015 21.0043 21.2015 18.7029V0H25.5189V18.7676Z" fill="white"/>
</svg>
