<svg width="80" height="32" viewBox="0 0 80 32" fill="none" xmlns="http://www.w3.org/2000/svg">
  <!-- ZEEP text -->
  <g fill="white">
    <!-- Z -->
    <path d="M2 4h8v2H5l5 6h3v2H3v-2h5l-5-6H2V4z"/>
    
    <!-- E -->
    <path d="M14 4h8v2h-6v2h5v2h-5v2h6v2h-8V4z"/>
    
    <!-- E -->
    <path d="M24 4h8v2h-6v2h5v2h-5v2h6v2h-8V4z"/>
    
    <!-- P -->
    <path d="M34 4h6c1.1 0 2 .9 2 2v2c0 1.1-.9 2-2 2h-4v4h-2V4zm2 4h4V6h-4v2z"/>
  </g>
  
  <!-- DESIGN text -->
  <g fill="white" opacity="0.8">
    <!-- D -->
    <path d="M2 18h5c2.2 0 4 1.8 4 4s-1.8 4-4 4H2v-8zm2 6h3c1.1 0 2-.9 2-2s-.9-2-2-2H4v4z"/>
    
    <!-- E -->
    <path d="M13 18h6v2h-4v1h3v2h-3v1h4v2h-6v-8z"/>
    
    <!-- S -->
    <path d="M21 18h4c1.1 0 2 .9 2 2v0c0 .6-.4 1-.9 1.3.5.3.9.7.9 1.3v0c0 1.1-.9 2-2 2h-4v-2h4v-1h-4v-2h4v-1h-4v-2z"/>
    
    <!-- I -->
    <path d="M29 18h2v8h-2v-8z"/>
    
    <!-- G -->
    <path d="M33 18h4c1.1 0 2 .9 2 2v4c0 1.1-.9 2-2 2h-4v-8zm2 6h2v-2h-1v-2h1v-2h-2v6z"/>
    
    <!-- N -->
    <path d="M41 18v8h-2v-6l4 6h2v-8h-2v6l-4-6h-2z"/>
  </g>
</svg> 